# xmcd
#
# Track frame offsets:
#	150
#	11860
#	24032
#	37847
#	49457
#	60344
#	73204
#	84331
#	94368
#	107022
#	120051
#	133001
#	147191
#	160083
#	172788
#	184811
#	194413
#	206498
#	218607
#	230133
#	240820
#	251552
#	263434
#	273225
#	283356
#	292987
#	304398
#	314955
#
# Disc length: 4336 seconds
#
# Revision: 1
# Processed by: cddbd v1.5.2PL0 Copyright (c) Steve Scherf et al.
# Submitted via: audiograbber 1.83.01
#
DISCID=8e10ee1c
DTITLE=Various Artist - Chicago Hit Factory - The Vee Jay Story [CD1]
DYEAR=2013
DGENRE=R&B
TTITLE0=Spaniels - Baby,it's you
TTITLE1=Spaniels - Goodnite,sweetheart,goodnite
TTITLE2=Jimmy Reed - You don't have to go
TTITLE3=El Dorados - At my front door
TTITLE4=Spaniels - You painted pictures
TTITLE5=Priscilla Bowman&the Jay McShann Orchestra - Hands off
TTITLE6=El Dorados - I'll be forever loving you
TTITLE7=Jimmy Reed - Ain't that lovin' you baby
TTITLE8=Magnificents - Up on the mountain
TTITLE9=Dells - Oh what a nite
TTITLE10=Jimmy Reed - You've got me dizzy
TTITLE11=Jimmy Reed - Little rain
TTITLE12=Spaniels - Everyone's laughing
TTITLE13=Jimmy Reed - The sun is shining
TTITLE14=Jimmy Reed - Honest I do
TTITLE15=Gene Allison - You can make it if you try
TTITLE16=Gene Allison - Have faith
TTITLE17=Jerry Butler&the Impressions - For your precious love
TTITLE18=John Lee Hooker - I love you honey
TTITLE19=Wade Flemons - Here I stand
TTITLE20=Dee Clark - Nobody but you
TTITLE21=Jimmy Reed - I'm gonna get my baby
TTITLE22=Dee Clark - Just keep it up
TTITLE23=Dee Clark - Hey little girl
TTITLE24=Rosco Gordon - Just a little bit
TTITLE25=Dee Clark - How about that
TTITLE26=Jimmy Reed - Baby what you want me to do
TTITLE27=Wade Flemons - Easy lovin'
EXTD=
EXTT0=
EXTT1=
EXTT2=
EXTT3=
EXTT4=
EXTT5=
EXTT6=
EXTT7=
EXTT8=
EXTT9=
EXTT10=
EXTT11=
EXTT12=
EXTT13=
EXTT14=
EXTT15=
EXTT16=
EXTT17=
EXTT18=
EXTT19=
EXTT20=
EXTT21=
EXTT22=
EXTT23=
EXTT24=
EXTT25=
EXTT26=
EXTT27=
PLAYORDER=
